<svg version="1.1" xmlns="http://www.w3.org/2000/svg" xmlns:xlink="http://www.w3.org/1999/xlink" width="34.2418" height="105.25" viewBox="0,0,34.2418,105.25"><g transform="translate(-222.8791,-154.44758)"><g data-paper-data="{&quot;isPaintingLayer&quot;:true}" fill="#1eb7db" fill-rule="nonzero" stroke="none" stroke-linecap="butt" stroke-linejoin="miter" stroke-miterlimit="10" stroke-dasharray="" stroke-dashoffset="0" style="mix-blend-mode: normal"><g data-paper-data="{&quot;index&quot;:null}"><path d="M231.1662,154.44758h19.2606l5.2818,11l1.3205,19h-34.15l2.8231,-19.25z" stroke-width="0.95638"/><path d="M225.4451,181.19758h4v7.5h-4z" stroke-width="1"/><path d="M250.4451,180.94758h4v7.5h-4z" stroke-width="1"/></g><path d="M240.16603,197.24554c0.586,0 1.118,0.238 1.502,0.623c0.385,0.384 0.623,0.916 0.623,1.502c0,0.586 -0.238,1.118 -0.623,1.502c-0.384,0.385 -0.916,0.623 -1.502,0.623c-0.586,0 -1.118,-0.238 -1.502,-0.623c-0.385,-0.384 -0.623,-0.916 -0.623,-1.502c0,-0.586 0.238,-1.118 0.623,-1.502c0.384,-0.385 0.916,-0.623 1.502,-0.623z" data-paper-data="{&quot;index&quot;:null}" stroke-width="1"/><g data-paper-data="{&quot;index&quot;:null}"><g><path d="M251.68,250.14838l-23.4936,0.2796l-3.9805,-11.2617l-1.2334,-19.0388l34.1484,-0.3337l-1.4501,19.3651z" stroke-width="0.95638"/><path d="M254.5535,223.06408l-3.9998,0.0391l-0.0733,-7.4996l3.9998,-0.0391z" stroke-width="1"/><path d="M229.5535,223.56408l-3.9998,0.0391l-0.0733,-7.4996l3.9998,-0.0391z" stroke-width="1"/></g><path d="M232.6951,248.19758h2.25v5.5h-2.25z" stroke-width="1"/><path d="M244.8451,248.69758h2.25v5.5h-2.25z" stroke-width="1"/><path d="M240.1951,251.19758c2.966,0 5.653,0.476 7.599,1.246c1.946,0.769 3.151,1.831 3.151,3.004c0,1.173 -1.205,2.235 -3.151,3.004c-1.946,0.77 -4.633,1.246 -7.599,1.246c-2.966,0 -5.653,-0.476 -7.599,-1.246c-1.946,-0.769 -3.151,-1.831 -3.151,-3.004c0,-1.173 1.205,-2.235 3.151,-3.004c1.946,-0.77 4.633,-1.246 7.599,-1.246z" stroke-width="1"/></g></g></g></svg>