<svg version="1.1" xmlns="http://www.w3.org/2000/svg" xmlns:xlink="http://www.w3.org/1999/xlink" width="4.31072" height="68.99348" viewBox="0,0,4.31072,68.99348"><g transform="translate(-237.84464,-164.89854)"><g data-paper-data="{&quot;isPaintingLayer&quot;:true}" fill="#1eb7db" fill-rule="nonzero" stroke="none" stroke-width="1" stroke-linecap="butt" stroke-linejoin="miter" stroke-miterlimit="10" stroke-dasharray="" stroke-dashoffset="0" style="mix-blend-mode: normal"><path d="M240.03036,196.71685c0.586,0 1.118,0.238 1.502,0.623c0.385,0.384 0.623,0.916 0.623,1.502c0,0.586 -0.238,1.118 -0.623,1.502c-0.384,0.385 -0.916,0.623 -1.502,0.623c-0.586,0 -1.118,-0.238 -1.502,-0.623c-0.385,-0.384 -0.623,-0.916 -0.623,-1.502c0,-0.586 0.238,-1.118 0.623,-1.502c0.384,-0.385 0.916,-0.623 1.502,-0.623z" data-paper-data="{&quot;index&quot;:null}"/><path d="M240.03036,164.89854c0.586,0 1.118,0.238 1.502,0.623c0.385,0.384 0.623,0.916 0.623,1.502c0,0.586 -0.238,1.118 -0.623,1.502c-0.384,0.385 -0.916,0.623 -1.502,0.623c-0.586,0 -1.118,-0.238 -1.502,-0.623c-0.385,-0.384 -0.623,-0.916 -0.623,-1.502c0,-0.586 0.238,-1.118 0.623,-1.502c0.384,-0.385 0.916,-0.623 1.502,-0.623z" data-paper-data="{&quot;index&quot;:null}"/><path d="M239.96964,229.64202c0.586,0 1.118,0.238 1.502,0.623c0.385,0.384 0.623,0.916 0.623,1.502c0,0.586 -0.238,1.118 -0.623,1.502c-0.384,0.385 -0.916,0.623 -1.502,0.623c-0.586,0 -1.118,-0.238 -1.502,-0.623c-0.385,-0.384 -0.623,-0.916 -0.623,-1.502c0,-0.586 0.238,-1.118 0.623,-1.502c0.384,-0.385 0.916,-0.623 1.502,-0.623z" data-paper-data="{&quot;index&quot;:null}"/></g></g></svg>