<svg version="1.1" xmlns="http://www.w3.org/2000/svg" xmlns:xlink="http://www.w3.org/1999/xlink" width="29.65353" height="67.42529" viewBox="0,0,29.65353,67.42529"><g transform="translate(-225.17808,-164.56481)"><g data-paper-data="{&quot;isPaintingLayer&quot;:true}" fill-rule="nonzero" stroke-linecap="butt" stroke-linejoin="miter" stroke-miterlimit="10" stroke-dasharray="" stroke-dashoffset="0" style="mix-blend-mode: normal"><path d="M239.725,166.8462c0.586,0 1.118,0.238 1.502,0.623c0.385,0.384 0.623,0.916 0.623,1.502c0,0.586 -0.238,1.118 -0.623,1.502c-0.384,0.385 -0.916,0.623 -1.502,0.623c-0.586,0 -1.118,-0.238 -1.502,-0.623c-0.385,-0.384 -0.623,-0.916 -0.623,-1.502c0,-0.586 0.238,-1.118 0.623,-1.502c0.384,-0.385 0.916,-0.623 1.502,-0.623z" data-paper-data="{&quot;index&quot;:null}" fill="#1eb7db" stroke="none" stroke-width="1"/><path d="M225.4,198.4462l14.5,-3.3l14.7,3.5l-14.7,-1.75z" data-paper-data="{&quot;index&quot;:null}" fill="#fefff1" stroke="#1eb7db" stroke-width="2"/><path d="M228.02,168.0262l11.6,-2.64l11.76,2.8l-11.76,-1.4z" data-paper-data="{&quot;index&quot;:null}" fill="#fefff1" stroke="#1eb7db" stroke-width="1.6"/><path d="M239.725,196.8462c0.586,0 1.118,0.238 1.502,0.623c0.385,0.384 0.623,0.916 0.623,1.502c0,0.586 -0.238,1.118 -0.623,1.502c-0.384,0.385 -0.916,0.623 -1.502,0.623c-0.586,0 -1.118,-0.238 -1.502,-0.623c-0.385,-0.384 -0.623,-0.916 -0.623,-1.502c0,-0.586 0.238,-1.118 0.623,-1.502c0.384,-0.385 0.916,-0.623 1.502,-0.623z" data-paper-data="{&quot;index&quot;:null}" fill="#1eb7db" stroke="none" stroke-width="1"/><path d="M240.225,227.7401c0.586,0 1.118,0.238 1.502,0.623c0.385,0.384 0.623,0.916 0.623,1.502c0,0.586 -0.238,1.118 -0.623,1.502c-0.384,0.385 -0.916,0.623 -1.502,0.623c-0.586,0 -1.118,-0.238 -1.502,-0.623c-0.385,-0.384 -0.623,-0.916 -0.623,-1.502c0,-0.586 0.238,-1.118 0.623,-1.502c0.384,-0.385 0.916,-0.623 1.502,-0.623z" data-paper-data="{&quot;index&quot;:null}" fill="#1eb7db" stroke="none" stroke-width="1"/><path d="M228.62,229.0201l11.6,-2.64l11.76,2.8l-11.76,-1.4z" data-paper-data="{&quot;index&quot;:null}" fill="#fefff1" stroke="#1eb7db" stroke-width="1.6"/></g></g></svg>