<svg version="1.1" xmlns="http://www.w3.org/2000/svg" xmlns:xlink="http://www.w3.org/1999/xlink" width="27.65198" height="100.06406" viewBox="0,0,27.65198,100.06406"><g transform="translate(-226.174,-151.18154)"><g data-paper-data="{&quot;isPaintingLayer&quot;:true}" fill="#1eb7db" fill-rule="nonzero" stroke="none" stroke-width="1" stroke-linecap="round" stroke-linejoin="miter" stroke-miterlimit="10" stroke-dasharray="" stroke-dashoffset="0" style="mix-blend-mode: normal"><path d="M240.0634,151.1818c3.534,0.041 5.005,7.88 7,12c2.015,4.401 4.41,8.786 5,13.5c1.625,12.305 2.13,24.83 1.5,37.25c-0.624,11.794 -0.957,23.979 -4.914,35.096c-0.991,2.784 -5.319,2.046 -8.086,2.154c-3.276,-0.108 -8.459,0.852 -9.586,-2.154c-4.072,-10.866 -3.563,-23.009 -4.164,-34.596c-0.642,-12.369 -1.139,-25.09 0.25,-37.5c0.561,-5.012 3.509,-9.322 5.75,-13.75c2.109,-4.168 3.699,-12.052 7.25,-12z" data-paper-data="{&quot;index&quot;:null}"/></g></g></svg>