<svg version="1.1" xmlns="http://www.w3.org/2000/svg" xmlns:xlink="http://www.w3.org/1999/xlink" width="35.19031" height="126.12865" viewBox="0,0,35.19031,126.12865"><g transform="translate(-222.40485,-127.74449)"><g data-paper-data="{&quot;isPaintingLayer&quot;:true}" fill="#c37a41" fill-rule="nonzero" stroke="none" stroke-linejoin="miter" stroke-miterlimit="10" stroke-dasharray="" stroke-dashoffset="0" style="mix-blend-mode: normal"><path d="M240.45054,141.0142c1.2955,-2.1712 -3.4301,7.5584 -3.4235,8.1724c0.0154,0.5754 1.8642,-4.2198 3.9205,-4.9145c1.0293,-0.3799 1.5627,1.7935 2.264,2.761c2.5246,3.4821 5.3816,6.7278 7.4545,10.4915c2.1469,3.8963 4.5578,7.9118 5.1354,12.369c1.7659,13.7617 2.0066,27.8049 1.6565,41.635c-0.4428,13.247 0.9321,27.2946 -4.0309,39.4814c-1.6986,4.1635 -8.8814,2.5136 -13.2525,2.4848c-4.6506,-0.0309 -11.9604,1.8455 -13.7495,-2.4848c-5.0073,-11.914 -3.4048,-25.7861 -3.7549,-38.7636c-0.1668,-13.8356 -1.1618,-28.0942 2.2088,-41.5245c2.7057,-10.7809 10.793,-21.1112 15.5716,-29.7077z" data-paper-data="{&quot;index&quot;:null}" stroke-width="1.10438" stroke-linecap="round"/><path d="M237.08254,127.7445h5.1997v44.5h-5.1997z" data-paper-data="{&quot;index&quot;:null}" stroke-width="1.33623" stroke-linecap="butt"/></g></g></svg>