<svg version="1.1" xmlns="http://www.w3.org/2000/svg" xmlns:xlink="http://www.w3.org/1999/xlink" width="34.1484" height="92.25" viewBox="0,0,34.1484,92.25"><g transform="translate(-222.9258,-167.1096)"><g data-paper-data="{&quot;isPaintingLayer&quot;:true}" fill-rule="nonzero" stroke="none" stroke-linecap="butt" stroke-linejoin="miter" stroke-miterlimit="10" stroke-dasharray="" stroke-dashoffset="0" style="mix-blend-mode: normal"><path d="M240.11933,197.31164c0.586,0 1.118,0.238 1.502,0.623c0.385,0.384 0.623,0.916 0.623,1.502c0,0.586 -0.238,1.118 -0.623,1.502c-0.384,0.385 -0.916,0.623 -1.502,0.623c-0.586,0 -1.118,-0.238 -1.502,-0.623c-0.385,-0.384 -0.623,-0.916 -0.623,-1.502c0,-0.586 0.238,-1.118 0.623,-1.502c0.384,-0.385 0.916,-0.623 1.502,-0.623z" data-paper-data="{&quot;index&quot;:null}" fill="#2b200c" stroke-width="1"/><g data-paper-data="{&quot;index&quot;:null}"><g fill="#81512b"><path d="M251.6333,249.8104l-23.4936,0.2796l-3.9805,-11.2617l-1.2334,-19.0388l34.1484,-0.3337l-1.4501,19.3651z" stroke-width="0.95638"/><path d="M254.5068,222.7261l-3.9998,0.0391l-0.0733,-7.4996l3.9998,-0.0391z" stroke-width="1"/><path d="M229.5068,223.2261l-3.9998,0.0391l-0.0733,-7.4996l3.9998,-0.0391z" stroke-width="1"/></g><path d="M232.6484,247.8596h2.25v5.5h-2.25z" fill="#81512b" stroke-width="1"/><path d="M244.7984,248.3596h2.25v5.5h-2.25z" fill="#81512b" stroke-width="1"/><path d="M240.1484,250.8596c2.966,0 5.653,0.476 7.599,1.246c1.946,0.769 3.151,1.831 3.151,3.004c0,1.173 -1.205,2.235 -3.151,3.004c-1.946,0.77 -4.633,1.246 -7.599,1.246c-2.966,0 -5.653,-0.476 -7.599,-1.246c-1.946,-0.769 -3.151,-1.831 -3.151,-3.004c0,-1.173 1.205,-2.235 3.151,-3.004c1.946,-0.77 4.633,-1.246 7.599,-1.246z" fill="#c08c38" stroke-width="1"/></g><path d="M240.5234,167.1096c0.586,0 1.118,0.238 1.502,0.623c0.385,0.384 0.623,0.916 0.623,1.502c0,0.586 -0.238,1.118 -0.623,1.502c-0.384,0.385 -0.916,0.623 -1.502,0.623c-0.586,0 -1.118,-0.238 -1.502,-0.623c-0.385,-0.384 -0.623,-0.916 -0.623,-1.502c0,-0.586 0.238,-1.118 0.623,-1.502c0.384,-0.385 0.916,-0.623 1.502,-0.623z" data-paper-data="{&quot;index&quot;:null}" fill="#2b200c" stroke-width="1"/></g></g></svg>